<?xml version="1.0" standalone="no"?>
<!DOCTYPE svg PUBLIC "-//W3C//DTD SVG 20010904//EN"
 "http://www.w3.org/TR/2001/REC-SVG-20010904/DTD/svg10.dtd">
<svg version="1.0" xmlns="http://www.w3.org/2000/svg"
 width="16.000000pt" height="16.000000pt" viewBox="0 0 16.000000 16.000000"
 preserveAspectRatio="xMidYMid meet">
<metadata>
Created by potrace 1.16, written by Peter Selinger 2001-2019
</metadata>
<g transform="translate(0.000000,16.000000) scale(0.100000,-0.100000)"
fill="#000000" stroke="none">
<path d="M0 75 l0 -75 75 0 75 0 0 56 c0 34 -4 53 -10 49 -5 -3 -10 -24 -10
-46 0 -35 -3 -39 -25 -39 l-25 0 21 42 c12 24 31 54 43 67 20 22 20 23 1 13
-11 -5 -31 -22 -44 -36 -19 -20 -27 -23 -38 -15 -9 9 -17 8 -28 -1 -13 -11
-15 -8 -15 14 0 24 3 26 44 26 25 0 48 5 51 10 4 6 -17 10 -54 10 l-61 0 0
-75z m50 -30 l23 -25 -26 0 c-22 0 -27 5 -27 25 0 31 1 31 30 0z"/>
</g>
</svg>
